<svg width="600" height="186" xmlns="http://www.w3.org/2000/svg">
  <rect width="600" height="186" rx="10" fill="#0d1117" stroke="#30363d" stroke-width="1"/>
  <text x="25" y="35" fill="#c9d1d9" font-size="16" font-weight="600" font-family="Segoe UI, Helvetica, Arial, sans-serif">Most Used Languages</text>
  <clipPath id="bar-clip"><rect x="25" y="70" width="550" height="25" rx="5"/></clipPath>
  <g clip-path="url(#bar-clip)">
    <rect x="0" y="70" width="186.23" height="25" rx="0" fill="#3178c6"/><rect x="186.23" y="70" width="105.31" height="25" rx="0" fill="#f1e05a"/><rect x="291.54" y="70" width="82.52" height="25" rx="0" fill="#B83998"/><rect x="374.06" y="70" width="68.76" height="25" rx="0" fill="#00ADD8"/><rect x="442.82" y="70" width="42.53" height="25" rx="0" fill="#6e4a7e"/><rect x="485.35" y="70" width="36.93" height="25" rx="0" fill="#00B4AB"/><rect x="522.28" y="70" width="15.06" height="25" rx="0" fill="#ffaff3"/><rect x="537.34" y="70" width="12.66" height="25" rx="0" fill="#663399"/>
  </g>
  
    <circle cx="25" cy="110" r="5" fill="#3178c6"/>
    <text x="35" y="114" fill="#c9d1d9" font-size="11" font-family="Segoe UI, Helvetica, Arial, sans-serif">TypeScript 33.9%</text>
    <circle cx="165" cy="110" r="5" fill="#f1e05a"/>
    <text x="175" y="114" fill="#c9d1d9" font-size="11" font-family="Segoe UI, Helvetica, Arial, sans-serif">JavaScript 19.1%</text>
    <circle cx="305" cy="110" r="5" fill="#B83998"/>
    <text x="315" y="114" fill="#c9d1d9" font-size="11" font-family="Segoe UI, Helvetica, Arial, sans-serif">Erlang 15.0%</text>
    <circle cx="445" cy="110" r="5" fill="#00ADD8"/>
    <text x="455" y="114" fill="#c9d1d9" font-size="11" font-family="Segoe UI, Helvetica, Arial, sans-serif">Go 12.5%</text>
    <circle cx="25" cy="132" r="5" fill="#6e4a7e"/>
    <text x="35" y="136" fill="#c9d1d9" font-size="11" font-family="Segoe UI, Helvetica, Arial, sans-serif">Elixir 7.7%</text>
    <circle cx="165" cy="132" r="5" fill="#00B4AB"/>
    <text x="175" y="136" fill="#c9d1d9" font-size="11" font-family="Segoe UI, Helvetica, Arial, sans-serif">Dart 6.7%</text>
    <circle cx="305" cy="132" r="5" fill="#ffaff3"/>
    <text x="315" y="136" fill="#c9d1d9" font-size="11" font-family="Segoe UI, Helvetica, Arial, sans-serif">Gleam 2.7%</text>
    <circle cx="445" cy="132" r="5" fill="#663399"/>
    <text x="455" y="136" fill="#c9d1d9" font-size="11" font-family="Segoe UI, Helvetica, Arial, sans-serif">CSS 2.3%</text>
</svg>
