<svg width="600" height="252" xmlns="http://www.w3.org/2000/svg">
  <rect width="600" height="252" rx="8" fill="#000"/>
  <rect x="0.5" y="0.5" width="599" height="251" rx="8" fill="none" stroke="#333" stroke-width="1"/>
  <text x="30" y="40" fill="#fff" font-size="15" font-weight="600" font-family="-apple-system, BlinkMacSystemFont, Segoe UI, Helvetica, Arial, sans-serif" letter-spacing="0.3">Most Used Languages</text>
  <text x="30" y="60" fill="#666" font-size="12" font-family="-apple-system, BlinkMacSystemFont, Segoe UI, Helvetica, Arial, sans-serif">Aggregated across all repositories</text>
  <clipPath id="bar-clip"><rect x="30" y="80" width="540" height="8" rx="4"/></clipPath>
  <g clip-path="url(#bar-clip)">
    <rect x="30" y="80" width="540" height="8" rx="4" fill="#1a1a1a"/>
    <rect x="0" y="80" width="182.84" height="8" fill="#3178c6"/><rect x="182.84" y="80" width="103.40" height="8" fill="#f1e05a"/><rect x="286.24" y="80" width="81.02" height="8" fill="#B83998"/><rect x="367.26" y="80" width="67.51" height="8" fill="#00ADD8"/><rect x="434.77" y="80" width="41.75" height="8" fill="#6e4a7e"/><rect x="476.52" y="80" width="36.26" height="8" fill="#00B4AB"/><rect x="512.78" y="80" width="14.79" height="8" fill="#ffaff3"/><rect x="527.57" y="80" width="12.43" height="8" fill="#663399"/>
  </g>
  <line x1="30" y1="100" x2="570" y2="100" stroke="#222" stroke-width="1"/>
  
    <circle cx="30" cy="116" r="4" fill="#3178c6"/>
    <text x="44" y="120" fill="#ededed" font-size="13" font-family="-apple-system, BlinkMacSystemFont, Segoe UI, Helvetica, Arial, sans-serif" font-weight="400">TypeScript</text>
    <text x="260" y="120" fill="#666" font-size="12" font-family="-apple-system, BlinkMacSystemFont, Segoe UI, Helvetica, Arial, sans-serif" text-anchor="end">33.9%</text>
    <circle cx="30" cy="146" r="4" fill="#f1e05a"/>
    <text x="44" y="150" fill="#ededed" font-size="13" font-family="-apple-system, BlinkMacSystemFont, Segoe UI, Helvetica, Arial, sans-serif" font-weight="400">JavaScript</text>
    <text x="260" y="150" fill="#666" font-size="12" font-family="-apple-system, BlinkMacSystemFont, Segoe UI, Helvetica, Arial, sans-serif" text-anchor="end">19.1%</text>
    <circle cx="30" cy="176" r="4" fill="#B83998"/>
    <text x="44" y="180" fill="#ededed" font-size="13" font-family="-apple-system, BlinkMacSystemFont, Segoe UI, Helvetica, Arial, sans-serif" font-weight="400">Erlang</text>
    <text x="260" y="180" fill="#666" font-size="12" font-family="-apple-system, BlinkMacSystemFont, Segoe UI, Helvetica, Arial, sans-serif" text-anchor="end">15.0%</text>
    <circle cx="30" cy="206" r="4" fill="#00ADD8"/>
    <text x="44" y="210" fill="#ededed" font-size="13" font-family="-apple-system, BlinkMacSystemFont, Segoe UI, Helvetica, Arial, sans-serif" font-weight="400">Go</text>
    <text x="260" y="210" fill="#666" font-size="12" font-family="-apple-system, BlinkMacSystemFont, Segoe UI, Helvetica, Arial, sans-serif" text-anchor="end">12.5%</text>
    <circle cx="300" cy="116" r="4" fill="#6e4a7e"/>
    <text x="314" y="120" fill="#ededed" font-size="13" font-family="-apple-system, BlinkMacSystemFont, Segoe UI, Helvetica, Arial, sans-serif" font-weight="400">Elixir</text>
    <text x="530" y="120" fill="#666" font-size="12" font-family="-apple-system, BlinkMacSystemFont, Segoe UI, Helvetica, Arial, sans-serif" text-anchor="end">7.7%</text>
    <circle cx="300" cy="146" r="4" fill="#00B4AB"/>
    <text x="314" y="150" fill="#ededed" font-size="13" font-family="-apple-system, BlinkMacSystemFont, Segoe UI, Helvetica, Arial, sans-serif" font-weight="400">Dart</text>
    <text x="530" y="150" fill="#666" font-size="12" font-family="-apple-system, BlinkMacSystemFont, Segoe UI, Helvetica, Arial, sans-serif" text-anchor="end">6.7%</text>
    <circle cx="300" cy="176" r="4" fill="#ffaff3"/>
    <text x="314" y="180" fill="#ededed" font-size="13" font-family="-apple-system, BlinkMacSystemFont, Segoe UI, Helvetica, Arial, sans-serif" font-weight="400">Gleam</text>
    <text x="530" y="180" fill="#666" font-size="12" font-family="-apple-system, BlinkMacSystemFont, Segoe UI, Helvetica, Arial, sans-serif" text-anchor="end">2.7%</text>
    <circle cx="300" cy="206" r="4" fill="#663399"/>
    <text x="314" y="210" fill="#ededed" font-size="13" font-family="-apple-system, BlinkMacSystemFont, Segoe UI, Helvetica, Arial, sans-serif" font-weight="400">CSS</text>
    <text x="530" y="210" fill="#666" font-size="12" font-family="-apple-system, BlinkMacSystemFont, Segoe UI, Helvetica, Arial, sans-serif" text-anchor="end">2.3%</text>
</svg>
