<svg width="420" height="186" xmlns="http://www.w3.org/2000/svg">
  <rect width="420" height="186" rx="10" fill="#0d1117" stroke="#30363d" stroke-width="1"/>
  <text x="25" y="35" fill="#c9d1d9" font-size="16" font-weight="600" font-family="Segoe UI, Helvetica, Arial, sans-serif">Most Used Languages</text>
  <clipPath id="bar-clip"><rect x="25" y="70" width="370" height="25" rx="5"/></clipPath>
  <g clip-path="url(#bar-clip)">
    <rect x="0" y="70" width="125.28" height="25" rx="0" fill="#3178c6"/><rect x="125.28" y="70" width="70.85" height="25" rx="0" fill="#f1e05a"/><rect x="196.13" y="70" width="55.51" height="25" rx="0" fill="#B83998"/><rect x="251.64" y="70" width="46.25" height="25" rx="0" fill="#00ADD8"/><rect x="297.89" y="70" width="28.61" height="25" rx="0" fill="#6e4a7e"/><rect x="326.50" y="70" width="24.85" height="25" rx="0" fill="#00B4AB"/><rect x="351.35" y="70" width="10.13" height="25" rx="0" fill="#ffaff3"/><rect x="361.48" y="70" width="8.52" height="25" rx="0" fill="#663399"/>
  </g>
  
    <circle cx="25" cy="110" r="5" fill="#3178c6"/>
    <text x="35" y="114" fill="#c9d1d9" font-size="11" font-family="Segoe UI, Helvetica, Arial, sans-serif">TypeScript 33.9%</text>
    <circle cx="120" cy="110" r="5" fill="#f1e05a"/>
    <text x="130" y="114" fill="#c9d1d9" font-size="11" font-family="Segoe UI, Helvetica, Arial, sans-serif">JavaScript 19.1%</text>
    <circle cx="215" cy="110" r="5" fill="#B83998"/>
    <text x="225" y="114" fill="#c9d1d9" font-size="11" font-family="Segoe UI, Helvetica, Arial, sans-serif">Erlang 15.0%</text>
    <circle cx="310" cy="110" r="5" fill="#00ADD8"/>
    <text x="320" y="114" fill="#c9d1d9" font-size="11" font-family="Segoe UI, Helvetica, Arial, sans-serif">Go 12.5%</text>
    <circle cx="25" cy="132" r="5" fill="#6e4a7e"/>
    <text x="35" y="136" fill="#c9d1d9" font-size="11" font-family="Segoe UI, Helvetica, Arial, sans-serif">Elixir 7.7%</text>
    <circle cx="120" cy="132" r="5" fill="#00B4AB"/>
    <text x="130" y="136" fill="#c9d1d9" font-size="11" font-family="Segoe UI, Helvetica, Arial, sans-serif">Dart 6.7%</text>
    <circle cx="215" cy="132" r="5" fill="#ffaff3"/>
    <text x="225" y="136" fill="#c9d1d9" font-size="11" font-family="Segoe UI, Helvetica, Arial, sans-serif">Gleam 2.7%</text>
    <circle cx="310" cy="132" r="5" fill="#663399"/>
    <text x="320" y="136" fill="#c9d1d9" font-size="11" font-family="Segoe UI, Helvetica, Arial, sans-serif">CSS 2.3%</text>
</svg>
